<?xml version="1.0" encoding="UTF-8" standalone="no"?>
<svg
   xmlns:dc="http://purl.org/dc/elements/1.1/"
   xmlns:cc="http://creativecommons.org/ns#"
   xmlns:rdf="http://www.w3.org/1999/02/22-rdf-syntax-ns#"
   xmlns:svg="http://www.w3.org/2000/svg"
   xmlns="http://www.w3.org/2000/svg"
   xmlns:sodipodi="http://sodipodi.sourceforge.net/DTD/sodipodi-0.dtd"
   xmlns:inkscape="http://www.inkscape.org/namespaces/inkscape"
   version="1.1"
   id="svg878"
   width="1978.6667"
   height="608"
   viewBox="0 0 1978.6667 608"
   sodipodi:docname="mountain_landscape.svg"
   inkscape:version="1.0.1 (3bc2e813f5, 2020-09-07)">
  <metadata
     id="metadata884">
    <rdf:RDF>
      <cc:Work
         rdf:about="">
        <dc:format>image/svg+xml</dc:format>
        <dc:type
           rdf:resource="http://purl.org/dc/dcmitype/StillImage" />
        <dc:title></dc:title>
      </cc:Work>
    </rdf:RDF>
  </metadata>
  <defs
     id="defs882" />
  <sodipodi:namedview
     pagecolor="#ffffff"
     bordercolor="#666666"
     borderopacity="1"
     objecttolerance="10"
     gridtolerance="10"
     guidetolerance="10"
     inkscape:pageopacity="0"
     inkscape:pageshadow="2"
     inkscape:window-width="1783"
     inkscape:window-height="952"
     id="namedview880"
     showgrid="false"
     inkscape:zoom="1"
     inkscape:cx="732.23614"
     inkscape:cy="496.61632"
     inkscape:window-x="1958"
     inkscape:window-y="56"
     inkscape:window-maximized="0"
     inkscape:current-layer="g886" />
  <g
     inkscape:groupmode="layer"
     inkscape:label="Image"
     id="g886">
    <path
       style="fill:#18191a;stroke-width:1.33333;fill-opacity:1"
       d="M 0.00295656,466.26473 V 324.52628 L 4.7811471,319.9314 c 2.628005,-2.52719 7.1078199,-8.56502 9.9551449,-13.41739 5.307465,-9.04491 13.181925,-17.17751 16.632278,-17.17751 1.06672,0 5.252194,-3 9.301054,-6.66666 4.04886,-3.66667 8.579116,-6.66667 10.067234,-6.66667 1.488117,0 5.231765,1.28891 8.319217,2.86424 5.082428,2.59324 6.31498,2.71939 13.027143,1.33333 4.077478,-0.842 11.661007,-1.5309 16.852288,-1.5309 7.255646,0 10.15561,-0.58052 12.538384,-2.50996 3.07721,-2.49178 3.14819,-2.4773 9.79658,2 3.6833,2.48048 7.15323,4.50996 7.71096,4.50996 0.55773,0 4.53618,-2.59284 8.841,-5.76187 4.30482,-3.16903 11.3565,-6.81167 15.67041,-8.09476 12.70149,-3.7778 18.09281,-6.38467 25.51959,-12.33945 4.20176,-3.36899 10.04401,-6.50236 14.5853,-7.82256 7.38522,-2.14694 7.72368,-2.12854 13.45004,0.73134 4.81858,2.40652 6.46178,2.66598 9.1441,1.44384 4.93621,-2.24909 5.56774,-2.05738 19.56497,5.93938 7.15215,4.08609 13.49881,7.23609 14.10371,7 0.60489,-0.23608 4.08552,-4.03416 7.73473,-8.44018 3.64921,-4.406 8.73792,-9.45189 11.30821,-11.21309 6.09063,-4.17336 10.42867,-10.61868 10.44926,-15.52516 0.022,-5.26108 12.37608,-18.3958 16.16984,-17.19171 4.43321,1.40706 11.51357,-1.92538 14.55841,-6.85205 1.57156,-2.54281 5.34691,-5.8814 8.38967,-7.41908 3.04277,-1.53768 9.0774,-5.44583 13.41028,-8.68475 6.32271,-4.72637 8.59907,-5.73058 11.53057,-5.08672 3.01952,0.6632 4.65839,-0.15888 9.45536,-4.74293 5.4563,-5.21408 6.00179,-5.4362 9.1361,-3.72001 1.83333,1.00384 6.03333,5.82093 9.33333,10.70465 3.3,4.88372 7.11357,10.09099 8.4746,11.57171 3.03968,3.30701 13.90119,8.79252 34.7046,17.52725 8.71523,3.65925 19.46839,9.12592 23.89593,12.14813 9.13614,6.23627 9.37347,6.15127 14.32531,-5.1302 2.67027,-6.08346 6.37636,-7.95309 13.09969,-6.60842 3.55039,0.71008 3.74532,0.49293 3.93646,-4.3849 0.28497,-7.27256 2.35658,-11.9091 5.92762,-13.26681 4.55428,-1.73153 6.00406,-4.06353 8.42083,-13.54519 3.3998,-13.33829 4.94357,-15.45125 14.43256,-19.75376 4.66368,-2.11461 9.05644,-4.87584 9.7617,-6.13605 1.19009,-2.12657 1.57962,-2.13752 5.41861,-0.15231 2.27499,1.17644 4.43805,2.13899 4.80683,2.13899 0.36876,0 1.88436,-2.74419 3.368,-6.09819 1.74929,-3.95456 3.24954,-5.75701 4.26792,-5.12761 0.86372,0.53381 6.81072,2.02181 13.21553,3.30667 8.77649,1.76064 13.35645,3.5133 18.59227,7.11492 5.89348,4.05398 17.59049,8.80421 21.67962,8.80421 0.64758,0 2.71415,-1.82631 4.59239,-4.05847 3.12769,-3.71705 12.00199,-9.27486 14.8094,-9.27486 0.64317,0 3.61675,-2.32808 6.60791,-5.17351 3.77937,-3.59523 7.54245,-5.67824 12.33514,-6.82799 5.84554,-1.40233 7.58002,-2.59514 11.3804,-7.82649 2.46608,-3.39461 6.7303,-7.67201 9.47604,-9.50535 2.74576,-1.83333 8.35435,-6.78333 12.46355,-11 4.72561,-4.84921 8.57404,-7.66666 10.47205,-7.66666 6.43284,0 15.20348,-7.228942 21.4344,-17.666672 1.64164,-2.75 3.4161,-4.999997 3.94323,-4.999997 0.52713,0 4.41408,-3.079964 8.63764,-6.844365 8.7366,-7.786811 8.98342,-7.776248 20.30944,0.869102 4.6111,3.519732 7.28863,4.682952 9.71271,4.219562 1.88381,-0.360116 5.41083,0.466578 8.06905,1.891306 2.59734,1.392082 5.46747,2.531062 6.3781,2.531062 0.91061,0 2.70509,1.65 3.98773,3.66667 1.28264,2.01666 3.09648,4.14648 4.03077,4.73293 2.3383,1.46774 5.69864,8.232172 5.69864,11.471452 0,5.16059 2.85715,8.83119 9.72442,12.49307 6.41686,3.42171 7.05672,3.52826 8.59065,1.43048 1.87648,-2.56624 1.62327,-2.71819 5.89693,3.53873 1.89483,2.77415 4.47628,4.81064 6.3655,5.02168 6.90996,0.77191 24.44132,18.23543 31.28449,31.16341 2.85743,5.3982 6.37028,11.1205 7.80636,12.7162 1.43607,1.59572 2.21701,3.53884 1.73543,4.31807 -0.50052,0.80985 -0.132,1.12581 0.8603,0.73759 0.95476,-0.37355 3.40308,-4.25598 5.44071,-8.6276 3.09149,-6.63264 5.07799,-8.86536 12,-13.4874 4.56237,-3.04643 10.69313,-8.30714 13.62392,-11.69046 2.93079,-3.38332 8.93079,-10.10716 13.33333,-14.94185 4.40255,-4.8347 9.80463,-11.7347 12.00463,-15.33333 2.78684,-4.55856 5.31217,-6.96711 8.32647,-7.94143 9.0274,-2.91795 16.29401,-13.265002 16.34097,-23.268212 0.008,-1.833334 0.96687,-5.133334 2.12947,-7.333334 1.1626,-2.2 3.30704,-7.827785 4.76541,-12.50619 2.89116,-9.274679 7.30442,-14.34682 16.43768,-18.891806 7.05754,-3.51204 10.56278,-6.57766 13.07444,-11.43468 1.13946,-2.203462 6.76031,-8.167526 12.4908,-13.253476 5.73048,-5.085949 11.48091,-10.4471812 12.77871,-11.9138472 2.32164,-2.623712 2.54053,-2.477547 13.58895,9.0738952 6.1761,6.457308 13.03442,14.939078 15.24069,18.848374 2.20627,3.909297 7.96219,10.597972 12.79096,14.86372 8.0537,7.114706 9.5361,9.32236 17.9312,26.703564 11.7465,24.320032 15.9445,30.373702 23.8456,34.386382 3.4423,1.74822 7.9133,5.04131 9.9356,7.31799 2.0224,2.27667 4.2156,4.13941 4.8739,4.13941 0.6583,0 3.7104,-2.1 6.7825,-4.66667 5.4314,-4.53781 12,-6.24493 12,-3.1187 0,2.10271 14.4076,21.1187 16.0007,21.1187 0.6989,0 3.6406,2.99825 6.5373,6.6628 l 5.2666,6.66279 4.3812,-3.66279 c 2.4096,-2.01455 6.4602,-5.95353 9.0012,-8.75332 l 4.6202,-5.09052 2.4392,5.01459 c 3.5589,7.31673 7.3755,10.84805 16.3923,15.167 4.4154,2.11493 12.3799,7.54457 17.6988,12.06588 8.2024,6.97226 10.2075,8.08588 13.2047,7.33362 4.5817,-1.14992 13.465,-7.29896 25.1245,-17.39117 5.1333,-4.44331 14.579,-11.54825 20.9905,-15.78879 12.1261,-8.02029 14.9901,-10.97016 26.6629,-27.46237 7.7528,-10.953842 10.3466,-12.842912 10.3466,-7.5355 0,1.89445 0.2894,3.44445 0.6432,3.44445 1.7395,0 19.2314,-11.455032 23.0641,-15.104082 3.5212,-3.35258 4.8208,-3.88512 6.6666,-2.73178 1.7876,1.11698 4.9452,5.79372 6.4404,9.53909 0.081,0.20344 4.5537,-2.34656 9.9387,-5.66667 5.3851,-3.32011 10.4366,-6.03656 11.2256,-6.03656 0.789,0 3.4154,2.1 5.8363,4.66667 4.867,5.15992 6.3015,5.57798 9.4287,2.74785 1.8882,-1.70876 2.8492,-0.95391 8.7797,6.895692 3.7391,4.94914 11.2544,12.32192 17.1378,16.81278 9.176,7.00407 10.6364,7.71612 11.7488,5.7283 1.1596,-2.07198 1.6036,-1.98964 5.0901,0.94406 2.1008,1.76772 8.5103,5.15115 14.2432,7.51872 5.7329,2.36757 12.3331,5.74021 14.6671,7.49475 l 4.2437,3.19008 0.9047,-2.99945 c 0.4974,-1.64969 1.7886,-4.91247 2.8692,-7.25058 l 1.9646,-4.25113 3.9803,4.53334 c 2.1892,2.49333 6.1884,5.84925 8.8871,7.45758 2.6988,1.60832 7.6068,5.13044 10.9068,7.82691 3.3,2.69648 11.1,7.52087 17.3333,10.72085 8.1708,4.19462 14.3671,8.75302 22.2049,16.33535 9.5707,9.25868 11.031,10.23216 12.2044,8.13539 1.2456,-2.22567 1.6691,-2.15316 6.4618,1.10616 6.8069,4.62908 16.4461,7.71533 24.1754,7.74042 7.4067,0.024 8.17,0.45791 12.053,6.85074 3.6586,6.02341 12.1841,13.84581 18.2354,16.73146 2.503,1.19359 4.2454,2.66442 3.872,3.2685 -1.0026,1.62248 3.7607,-0.29583 6.4352,-2.59159 1.8854,-1.61821 4.6984,-1.80103 15.3334,-0.99643 7.1634,0.54196 18.6221,0.89418 25.4637,0.78268 15.8655,-0.25852 20.4875,1.31006 29.7952,10.11148 l 7.5676,7.15608 h 11.52 c 6.336,0 12.8305,0.67331 14.4323,1.49626 4.8157,2.47408 10.3529,8.23922 12.2541,12.75853 1.4181,3.37108 2.9877,4.56531 7.5575,5.74988 4.2614,1.10471 7.58,3.4276 12.709,8.89603 l 6.9416,7.40093 10.3918,-0.36669 c 16.3994,-0.57868 17.1102,-0.40195 24.3917,6.06506 3.7156,3.3 8.0856,6.08544 9.7112,6.18987 1.6255,0.1044 4.7555,0.34633 6.9556,0.53756 2.2,0.19121 9.5377,3.17808 16.306,6.63749 12.9907,6.63983 22.0024,8.6576 26.9177,6.02699 2.503,-1.33948 3.5887,-1.08749 7.1952,1.66984 7.6647,5.85988 18.3656,15.93136 17.6682,16.62884 -0.3759,0.37587 -3.0706,-1.47321 -5.988,-4.10905 -9.588,-8.66218 -15.5344,-11.9776 -18.5694,-10.35336 -6.0833,3.2557 -19.9673,0.11146 -33.1406,-7.5053 -3.1698,-1.83269 -7.1431,-3.05822 -9.1328,-2.81684 l -3.5222,0.4273 4.1502,5.205 c 2.2825,2.86276 3.8729,5.48213 3.5342,5.82082 -0.3388,0.33871 -2.536,-0.0536 -4.8829,-0.87166 -6.3216,-2.20372 -8.5573,-1.85815 -13.1881,2.03845 -3.5395,2.97827 -4.1334,4.31668 -3.8228,8.61655 0.2757,3.81998 -0.4027,5.91048 -2.7183,8.37534 -1.6973,1.80662 -2.6991,3.91079 -2.2261,4.67594 0.4992,0.80762 4.9685,1.2685 10.6546,1.0987 10.6414,-0.31776 14.8622,1.70339 15.6904,7.51343 0.6131,4.29985 5.7348,3.87979 5.7622,-0.47257 0.02,-3.16258 0.4978,-3.37206 9.3333,-4.08931 13.0877,-1.06245 19.2256,-3.28788 18.3459,-6.6518 -0.6604,-2.52545 -0.1734,-2.59293 12.6497,-1.75259 l 13.3364,0.87399 11.5161,-10.84751 c 13.8314,-13.02824 21.3084,-17.07432 35.097,-18.99213 14.745,-2.05085 26.391,-7.01528 37.7525,-16.09316 5.3561,-4.27945 10.4252,-7.78083 11.2648,-7.78083 1.4904,0 14.3771,12.67358 23.7256,23.33334 2.5997,2.96432 10.3892,8.57182 17.5364,12.62412 7.7275,4.38136 15.4985,10.05644 19.4735,14.2213 l 6.6145,6.93052 v 142.7787 142.77869 H 989.33632 0.00295656 Z"
       id="path1646" />
    <path
       style="fill:#18191a;fill-opacity:1;stroke:#18191a;stroke-width:0;stroke-miterlimit:4;stroke-dasharray:none;stroke-opacity:1"
       d="M 0.73614229,465.81249 V 324.00865 l 3.59319981,-3.44616 c 1.9762598,-1.89539 6.7220149,-8.02506 10.5461229,-13.62148 6.984566,-10.22161 13.656001,-17.32469 16.271897,-17.32469 0.773003,0 5.087953,-2.925 9.58878,-6.5 4.500827,-3.575 9.055633,-6.5 10.121793,-6.5 1.066159,0 4.692954,1.15935 8.059544,2.57632 5.600765,2.35733 6.639488,2.48965 12.219868,1.55659 3.354337,-0.56086 10.823795,-1.3222 16.598795,-1.69188 7.793836,-0.49891 11.33929,-1.17987 13.756468,-2.64214 l 3.25647,-1.97 6.46902,4.08555 c 3.55796,2.24706 7.08179,4.08556 7.83074,4.08556 0.74894,0 3.79747,-1.7394 6.77451,-3.86534 7.13768,-5.0971 13.61059,-8.26148 23.72407,-11.59787 5.50472,-1.81598 11.51576,-4.88433 17.80092,-9.08652 9.64294,-6.44717 18.44001,-10.45027 22.96515,-10.45027 1.37628,0 4.34834,0.94177 6.60459,2.09282 3.01916,1.54026 5.05483,1.92131 7.71016,1.44323 7.15799,-1.28876 8.90826,-0.80041 20.83698,5.81373 6.59658,3.65762 12.54295,6.65022 13.21417,6.65022 1.77212,0 27.47604,-25.97634 29.41595,-29.72772 0.90244,-1.74513 1.6408,-4.01816 1.6408,-5.05118 0,-2.92504 5.92288,-11.15269 10.32321,-14.34027 2.8359,-2.05432 5.15315,-2.88272 8.07683,-2.88742 4.79131,-0.008 8.23775,-2.04197 13.11716,-7.74247 1.93448,-2.26001 5.19699,-5.11809 7.25002,-6.35129 2.05303,-1.23319 7.69977,-4.86511 12.54831,-8.07091 6.96077,-4.60239 9.63631,-5.82874 12.71662,-5.82874 3.20622,0 4.8036,-0.80155 8.96785,-4.5 2.78672,-2.475 5.89443,-4.5 6.90602,-4.5 2.19881,0 8.15069,6.2634 13.78982,14.5116 7.20466,10.53804 9.93627,12.28865 39.25841,25.15958 8.00016,3.51166 18.70646,8.89607 23.79178,11.96534 5.08532,3.06928 9.90594,5.32727 10.7125,5.01777 0.80656,-0.30951 2.78414,-3.17084 4.39462,-6.35851 4.17821,-8.27003 6.00346,-9.64172 12.54535,-9.42795 l 5.39999,0.17646 0.68415,-5.89471 c 0.72067,-6.20934 3.5703,-12.14958 5.82835,-12.14958 2.86862,0 5.94074,-5.11124 8.66409,-14.41488 1.54798,-5.28827 3.5468,-10.73267 4.44183,-12.09865 0.89502,-1.36598 4.69812,-4.03003 8.45132,-5.92011 3.75321,-1.89009 8.22043,-4.61153 9.92716,-6.04765 l 3.10315,-2.61112 3.99631,2.03877 c 4.39628,2.24281 4.0925,2.4211 7.5761,-4.44636 1.85396,-3.65483 2.34471,-3.98193 5.68716,-3.79055 7.25963,0.41567 21.45307,4.55113 27.84189,8.11212 8.98496,5.00804 15.36416,7.93013 20.09068,9.20285 3.98396,1.07277 4.0561,1.04206 9.71155,-4.13316 3.13377,-2.86767 7.94777,-6.23111 10.69777,-7.4743 2.75,-1.2432 7.15554,-4.07001 9.79009,-6.28181 2.63454,-2.21179 7.35954,-4.95856 10.5,-6.10392 8.5968,-3.13535 9.78714,-3.91464 13.16583,-8.61938 1.71181,-2.38366 5.23452,-6.03121 7.82824,-8.10566 2.59371,-2.07445 8.41809,-7.22898 12.94307,-11.4545 5.32656,-4.97407 9.3811,-7.93186 11.5,-8.38927 7.51999,-1.62334 16.50089,-9.005748 21.5442,-17.709595 2.07954,-3.588905 19.07192,-17.752823 21.29797,-17.752823 0.8657,0 5.12977,2.475 9.47572,5.5 5.92812,4.126263 8.78257,5.501157 11.42831,5.504631 1.93961,0.0025 6.20096,1.094013 9.46967,2.425481 9.064,3.692117 18.5569,15.437976 18.5569,22.961046 0,4.26861 6.72594,10.65315 14.22732,13.50517 2.14796,0.81665 3.04353,0.68997 4.34865,-0.61515 1.5248,-1.52481 1.89932,-1.33576 5.18147,2.61551 2.11354,2.54443 5.59203,5.16929 8.64021,6.51987 5.9794,2.64935 14.56933,10.22862 21.43473,18.91281 5.91402,7.48075 17.16762,25.97961 17.16762,28.22041 0,3.23968 2.59618,0.61797 6.79335,-6.86015 4.15233,-7.39825 5.73828,-9.05446 16.89737,-17.64601 6.48251,-4.99098 23.49473,-23.69727 32.12462,-35.32358 5.27961,-7.11276 7.62091,-9.36827 12.32997,-11.87817 8.57271,-4.56921 13.05427,-11.142915 14.74228,-21.624489 0.53583,-3.327235 1.61905,-7.324787 2.40715,-8.883449 0.7881,-1.558661 2.4097,-5.807782 3.60355,-9.44249 3.6092,-10.988297 6.89228,-15.162016 16.16442,-20.549494 4.86541,-2.826997 9.42619,-6.376043 11.29759,-8.791402 4.40287,-5.682668 28.82609,-29.5505432 30.23811,-29.5505432 1.95239,0 19.07079,18.5892762 25.14319,27.3035762 3.14134,4.508033 9.58887,12.081931 14.32776,16.830884 8.1844,8.201601 9.0819,9.555155 17.9023,26.999999 12.7863,25.288538 14.6204,27.867528 24.4103,34.324848 4.4649,2.94499 9.2089,6.52141 10.5423,7.94761 1.3334,1.42619 2.8888,2.59308 3.4566,2.59308 0.5677,0 3.6044,-1.80427 6.7481,-4.0095 5.9469,-4.17145 11.871,-6.19789 11.871,-4.06063 0,2.19217 8.0898,13.11153 15.8291,21.36557 4.2312,4.51251 8.6916,9.49142 9.9121,11.06425 l 2.2192,2.85969 5.0083,-4.19319 c 2.7546,-2.30626 6.7872,-6.21415 8.9615,-8.68421 l 3.9531,-4.49101 2.0645,4.04671 c 3.4112,6.68645 7.8602,10.90649 16.6701,15.81211 4.6009,2.56191 12.5315,7.94222 17.6237,11.95625 7.0414,5.55063 10.0179,7.3025 12.4301,7.31609 3.8401,0.0216 11.6125,-5.01171 26.3646,-17.07324 5.755,-4.70545 14.9637,-11.74342 20.4637,-15.63993 11.7164,-8.30059 16.7319,-13.3223 26.2742,-26.30664 3.855,-5.24572 7.7331,-10.13848 8.6179,-10.8728 1.4088,-1.16918 1.6864,-0.94697 2.2333,1.78767 0.3435,1.71755 1.1557,3.12281 1.8048,3.12281 1.3589,0 20.9323,-13.087386 24.3647,-16.29107 1.7824,-1.663603 2.6758,-1.905177 4,-1.081635 1.7007,1.057627 5.7255,6.433906 6.455,8.622485 0.2328,0.698219 4.2307,-1.097797 10.1237,-4.547936 5.3565,-3.136013 10.4546,-5.701842 11.329,-5.701842 0.8745,0 3.7697,2.038862 6.4338,4.530804 l 4.8438,4.530804 3.1997,-1.654654 3.1998,-1.654655 3.0429,3.87385 c 5.7153,7.276079 15.0001,16.485749 22.1112,21.932409 7.2394,5.54496 9.203,6.30465 11.1816,4.32603 0.8206,-0.82055 1.9969,-0.44689 4.45,1.41349 1.834,1.3909 8.2846,4.83819 14.3346,7.66065 6.05,2.82246 12.6957,6.30323 14.7681,7.73506 2.0725,1.43182 3.9096,2.42397 4.0825,2.20476 0.173,-0.2192 1.3447,-3.21105 2.6039,-6.64855 1.2591,-3.4375 2.5962,-6.25 2.9713,-6.25 0.375,0 2.2326,1.61318 4.128,3.58484 4.8141,5.00777 24.9925,19.34987 35.0468,24.91002 10.0996,5.58516 16.1401,10.0568 26.2578,19.4381 4.192,3.88687 7.8574,7.06704 8.1453,7.06704 0.2879,0 1.3179,-0.49614 2.2889,-1.10254 1.4159,-0.88424 3.0467,-0.3984 8.2364,2.45376 7.1353,3.92138 16.9333,6.61123 24.1649,6.634 4.6498,0.0146 4.7455,0.0829 10.1882,7.26478 3.0218,3.9875 7.187,8.57849 9.256,10.20221 5.198,4.07927 13.4041,9.54779 14.3275,9.54779 0.4206,0 1.9755,-0.9524 3.4553,-2.11644 2.66,-2.09236 3.0058,-2.106 30.3849,-1.1989 31.7923,1.05333 30.9122,0.82155 42.2102,11.11534 l 6.516,5.93681 11.984,0.44906 c 8.3801,0.31401 12.9088,0.93557 15.0592,2.06686 3.2786,1.72484 8.6416,7.47634 11.9248,12.7887 1.421,2.2992 3.5664,3.81249 7.4106,5.22713 4.053,1.49144 7.0841,3.71501 12.0795,8.86125 6.1438,6.32936 6.9971,6.87019 10.8394,6.87019 h 4.1705 v 169 169 H 854.23614 0.73614229 Z"
       id="path1686" />
  </g>
</svg>
